<svg version="1.1" id="Calque_1" xmlns="http://www.w3.org/2000/svg" xmlns:xlink="http://www.w3.org/1999/xlink" x="0px"
    y="0px" viewBox="0 0 464.9 117" style="enable-background:new 0 0 464.9 117;" xml:space="preserve">
    <style type="text/css">
      .st0 {
        fill: #FFFFFF;
      }
    </style>
    <g>
      <path class="st0" d="M87.6,100.5c-15.5,13.1-35.4,13.6-54.5,13.6H0V0h44.3c3.2,0,6.3,0,9.5,0.2c5.2,0.2,17.4,1.1,29.6,9
		c16,10.5,23.4,28.1,23.4,47C106.8,72.7,100.5,89.7,87.6,100.5z M61.9,15c-5.5-1.5-12-1.6-17.6-1.6h-28v86.9h20.9
		c3.1,0,6-0.2,8.9-0.3C51,99.8,65,99.5,76.6,89.3C89.5,77.8,90.3,61,90.3,55.5C90.2,36.9,80.8,20,61.9,15z" />
      <path class="st0" d="M334,22V6.5h15.2V22H334z M334.1,114.1V35.2h15.3v78.9C349.4,114.1,334.1,114.1,334.1,114.1z" />
      <path class="st0" d="M456.4,100.2c-5.8,7.1-17.6,16-39.4,16c-13.1,0-20.4-2.6-25.7-5.2c-1.9-1-5.2-2.4-8.7-5.8v8.9h-15.3V0h15.3
		v44.4c2.9-2.8,5.8-4.5,9.4-6.1c4-1.9,12.9-5.3,24.9-5.3c2.9,0,8.7,0,16,2.1c19.4,5.3,32.2,18.8,32.2,39.4
		C464.9,78.5,464.3,90.5,456.4,100.2z M439.6,53.5c-3.9-3.4-12.6-8.9-26.3-8.2c-5,0.2-10,1.5-14.5,3.4
		c-15.3,6.6-17.1,20.4-17.1,26.7c0,2.4,0,6.6,2.6,12c7.4,15.8,28.4,16.2,31.8,16.2c2.8,0,12.6-0.2,20.7-5.3
		c3.9-2.6,12.4-9.9,12.4-23.3C449.1,71,448.1,60.9,439.6,53.5z" />
      <path class="st0" d="M319.3,36.4v40.3c0,24.9-14.7,40.4-38.5,40.4c-13.6,0-24.3-5.1-30.9-14.2c-6.6,9.1-17.3,14.2-30.9,14.2h-16.7
		v-15.1H219c10.7,0,23.3-4.4,23.3-25.2h15.1c0,20.9,12.7,25.2,23.3,25.2c10.7,0,23.3-4.4,23.3-25.2V36.4H319.3z" />
      <path class="st0" d="M159.1,109.4L159.1,109.4z" />
      <path class="st0" d="M166.8,117c-0.5,0-11.3-0.2-22.1-5.4c-10.6-5.1-23.2-15.8-23.2-38.2c0-22.7,10.5-34.4,19.2-40.3
		c11.2-7.5,24-8.6,30.6-8.6c18.3,0,45.6,11.1,45.6,41.6v7.6l-80.3-0.2c0.1,27.7,29.2,28.4,30.4,28.4L166.8,117z M139,58.4l61.7,0.2
		c-1.5-5.4-4.7-9.7-9.5-13c-6.4-4.3-14.6-5.9-20-5.9c-4,0-14.1,0.6-22.2,6C144.4,48.8,141.1,53,139,58.4z" />
    </g>
  </svg>