<svg version="1.1" id="Calque_1" xmlns="http://www.w3.org/2000/svg" xmlns:xlink="http://www.w3.org/1999/xlink" x="0px"
    y="0px" viewBox="0 0 800 800" style="enable-background:new 0 0 800 800;" xml:space="preserve">
    <style type="text/css">
.st0 {
  fill: none;
  stroke: #244E99;
  stroke-width: 39.4076;
  stroke-miterlimit: 10;
}

.st1 {
  fill: white;
}

.st2 {
  enable-background: new;
}
</style>
    <g>
      <g>
        <g>
          <path class="st0" d="M434.9,371.6c0,63.2-38.1,90.2-85,90.2h-57.4" />
          <path class="st0" d="M434.9,371.6c0,63.2,38.1,90.2,85,90.2s85-27,85-90.2v-111" />
        </g>
        <path class="st1" d="M243.1,444.1h-35.6V204.6h77.1c15.6,0,33.4,0.4,48.5,4.4c52.1,13.8,77.9,60.1,78.4,111.7c0,1.1,0,2.5-0.1,4
			h45.4c0-0.7,0.1-1.5,0.1-2.2c0-52.1-20.5-100.6-64.5-129.5c-33.4-21.8-67.2-24.5-81.5-24.9c-8.9-0.4-17.4-0.4-26.3-0.4h-122v314.3
			h80.6V444.1z" />
      </g>
    </g>
  </svg>