<?xml version="1.0" encoding="utf-8"?>
<!-- Generator: Adobe Illustrator 23.0.4, SVG Export Plug-In . SVG Version: 6.00 Build 0)  -->
<svg version="1.1" id="Calque_1" xmlns="http://www.w3.org/2000/svg" xmlns:xlink="http://www.w3.org/1999/xlink" x="0px" y="0px"
	 viewBox="0 0 464.9 117" style="enable-background:new 0 0 464.9 117;" xml:space="preserve">
<style type="text/css">
	.st0{fill:none;stroke:#000000;stroke-width:15.1157;stroke-miterlimit:10;}
	.st1{fill:none;stroke:#F81900;stroke-width:15.1157;stroke-miterlimit:10;}
</style>
<g>
	<path d="M87.6,100.5c-15.5,13.1-35.4,13.6-54.5,13.6H0V0h44.3c3.2,0,6.3,0,9.5,0.2c5.2,0.2,17.4,1.1,29.6,9
		c16,10.5,23.4,28.1,23.4,47C106.8,72.7,100.5,89.7,87.6,100.5z M61.9,15c-5.5-1.5-12-1.6-17.6-1.6h-28v86.9h20.9
		c3.1,0,6-0.2,8.9-0.3c4.9-0.2,18.9-0.5,30.5-10.7c12.9-11.5,13.7-28.3,13.7-33.8C90.2,36.9,80.8,20,61.9,15z"/>
	<path d="M334,22V6.5h15.2V22H334z M334.1,114.1V35.2h15.3v78.9H334.1z"/>
	<path d="M456.4,100.2c-5.8,7.1-17.6,16-39.4,16c-13.1,0-20.4-2.6-25.7-5.2c-1.9-1-5.2-2.4-8.7-5.8v8.9h-15.3V0h15.3v44.4
		c2.9-2.8,5.8-4.5,9.4-6.1c4-1.9,12.9-5.3,24.9-5.3c2.9,0,8.7,0,16,2.1c19.4,5.3,32.2,18.8,32.2,39.4
		C464.9,78.5,464.3,90.5,456.4,100.2z M439.6,53.5c-3.9-3.4-12.6-8.9-26.3-8.2c-5,0.2-10,1.5-14.5,3.4
		c-15.3,6.6-17.1,20.4-17.1,26.7c0,2.4,0,6.6,2.6,12c7.4,15.8,28.4,16.2,31.8,16.2c2.8,0,12.6-0.2,20.7-5.3
		c3.9-2.6,12.4-9.9,12.4-23.3C449.1,71,448.1,60.9,439.6,53.5z"/>
	<path class="st0" d="M249.9,76.7c0,23-13.8,32.8-30.9,32.8h-16.7"/>
	<path class="st0" d="M249.9,76.7c0,23,13.8,32.8,30.9,32.8s30.9-9.8,30.9-32.8V36.4"/>
	<path class="st1" d="M159.1,109.4"/>
	<path class="st0" d="M129.4,65.9l79.9,0.2c0-26.2-24.1-34-38-34c-14.1,0-42.3,5.7-42.3,41.3s37.9,36,37.9,36"/>
</g>
</svg>
